<svg width="113" height="115" viewBox="0 0 113 115" fill="none" xmlns="http://www.w3.org/2000/svg">
<path d="M109.99 41.1895C111.62 46.4395 112.5 52.0195 112.5 57.8095C112.5 88.7395 87.43 113.809 56.5 113.809C25.57 113.809 0.5 88.7395 0.5 57.8095C0.5 52.0195 1.38 46.4395 3.01 41.1895" stroke="white" stroke-miterlimit="10"/>
<path d="M2.18001 30.6094C4.42001 32.0494 6.67001 33.4994 8.91001 34.9394C8.52001 35.5394 8.14002 36.1594 7.78001 36.7794C5.48001 35.4194 3.19001 34.0594 0.890015 32.7094C1.31001 31.9994 1.74001 31.2994 2.18001 30.6094Z" fill="white"/>
<path d="M12.28 30.4004C11.77 31.0404 11.27 31.5504 10.75 31.9304C10.23 32.3104 9.72003 32.5404 9.20003 32.6004C8.68003 32.6704 8.18003 32.5504 7.71003 32.2504C8.12003 31.6504 8.53003 31.0704 8.95003 30.4904C9.18003 30.6304 9.43003 30.6704 9.68003 30.6304C9.94003 30.5904 10.19 30.4704 10.45 30.2804C10.71 30.0904 10.95 29.8404 11.19 29.5404C11.43 29.2404 11.6 28.9504 11.72 28.6804C11.83 28.4104 11.88 28.1604 11.87 27.9404C11.85 27.7204 11.77 27.5404 11.61 27.4104C11.47 27.2904 11.31 27.2504 11.12 27.2804C10.93 27.3104 10.72 27.4004 10.48 27.5604C10.24 27.7104 9.97003 27.9204 9.67003 28.1904C9.37003 28.4504 9.07003 28.7204 8.77003 29.0004C8.08003 29.6304 7.45003 30.0704 6.85003 30.3104C6.26003 30.5404 5.72003 30.5004 5.24003 30.1704C4.84003 29.9004 4.60003 29.5004 4.52003 28.9804C4.44003 28.4604 4.52003 27.8704 4.75003 27.2204C4.98003 26.5604 5.36003 25.9004 5.88003 25.2404C6.41003 24.5604 6.97003 24.0504 7.53003 23.7004C8.09003 23.3504 8.63003 23.1704 9.13003 23.1404C9.63003 23.1204 10.05 23.2704 10.41 23.5804C9.92003 24.1204 9.44003 24.6704 8.97003 25.2404C8.70003 25.0604 8.39003 25.0504 8.03003 25.2004C7.68003 25.3604 7.31003 25.6604 6.95003 26.1204C6.71003 26.4304 6.53003 26.7204 6.42003 26.9904C6.31003 27.2604 6.27003 27.5004 6.29003 27.7004C6.31003 27.9004 6.40003 28.0504 6.54003 28.1604C6.70003 28.2804 6.88003 28.3104 7.08003 28.2604C7.29003 28.2104 7.50003 28.0904 7.73003 27.9204C7.96003 27.7504 8.19003 27.5604 8.42003 27.3504C8.67003 27.1204 8.93003 26.9004 9.18003 26.6804C9.53003 26.3704 9.88003 26.1004 10.24 25.8904C10.59 25.6704 10.94 25.5204 11.27 25.4204C11.61 25.3204 11.92 25.3004 12.22 25.3604C12.52 25.4104 12.79 25.5604 13.04 25.7904C13.4 26.1204 13.6 26.5204 13.66 26.9904C13.72 27.4604 13.63 27.9804 13.4 28.5604C13.17 29.1304 12.8 29.7404 12.29 30.3804L12.28 30.4004Z" fill="white"/>
<path d="M10.5601 22.0309C10.2301 21.7209 9.90007 21.4109 9.57007 21.1009C11.6901 18.8309 13.9501 16.7609 16.3101 14.8809C16.5901 15.2309 16.8701 15.5909 17.1601 15.9409C16.3001 16.6309 15.4501 17.3509 14.6101 18.0909C16.0801 19.7509 17.5501 21.4109 19.0201 23.0709C18.5201 23.5209 18.0201 23.9709 17.5301 24.4409C16.0001 22.8309 14.4801 21.2209 12.9501 19.6209C12.1401 20.4009 11.3401 21.2009 10.5601 22.0309Z" fill="white"/>
<path d="M22.38 20.3C20.77 18.17 19.16 16.04 17.55 13.91C18.69 13.04 19.86 12.22 21.05 11.43C21.75 10.97 22.4 10.69 23.01 10.57C23.62 10.45 24.1501 10.49 24.6 10.68C25.0601 10.87 25.41 11.19 25.67 11.65C25.93 12.11 26.03 12.57 25.97 13.05C25.91 13.53 25.7 13.99 25.34 14.44C24.98 14.9 24.48 15.33 23.83 15.76C23.09 16.25 22.35 16.76 21.63 17.28C21.37 16.92 21.11 16.56 20.85 16.2C21.5001 15.73 22.15 15.27 22.82 14.83C23.18 14.59 23.45 14.36 23.64 14.13C23.82 13.9 23.9301 13.68 23.9501 13.45C23.9701 13.22 23.91 13 23.7701 12.77C23.6301 12.54 23.45 12.38 23.23 12.3C23.01 12.22 22.75 12.21 22.46 12.3C22.16 12.37 21.8301 12.54 21.4501 12.79C21.0101 13.08 20.58 13.38 20.15 13.68C21.43 15.5 22.7 17.31 23.98 19.13C23.44 19.51 22.91 19.9 22.38 20.3ZM26.8 17.27C25.5 16.64 24.16 16.06 22.8 15.52C23.43 15.1 24.0601 14.68 24.7001 14.29C26.0601 14.88 27.38 15.51 28.67 16.18C28.04 16.53 27.42 16.9 26.8 17.28V17.27Z" fill="white"/>
<path d="M29.17 15.89C28.83 13.03 28.63 10.12 28.58 7.19C29.45 6.77 30.33 6.38 31.22 6C33.43 7.97 35.5 10.03 37.44 12.17C36.77 12.41 36.1 12.66 35.44 12.93C34.49 11.92 33.51 10.93 32.5 9.96C32.12 9.58 31.72 9.16 31.29 8.7C30.86 8.24 30.39 7.74 29.89 7.2C30.04 7.13 30.18 7.07 30.33 7C30.41 7.74 30.49 8.42 30.56 9.04C30.63 9.66 30.69 10.23 30.73 10.75C30.81 12.14 30.92 13.51 31.07 14.88C30.43 15.2 29.8 15.53 29.17 15.88V15.89ZM30.12 13.29C29.93 12.91 29.73 12.53 29.54 12.14C31.13 11.34 32.75 10.61 34.39 9.96L34.87 11.15C33.26 11.79 31.68 12.5 30.12 13.28V13.29Z" fill="white"/>
<path d="M38.4201 11.83C38.3101 11.52 38.2101 11.21 38.1001 10.9C38.8301 9.04 39.6701 7.19 40.6201 5.36C40.8001 5.02 41.0001 4.68 41.2401 4.33C41.4701 3.98 41.7201 3.64 41.9701 3.3C42.0601 3.46 42.1601 3.62 42.2501 3.78C41.8001 3.92 41.3501 4.04 40.9001 4.17C40.4501 4.29 39.9901 4.41 39.5401 4.54C38.4401 4.84 37.3501 5.18 36.2701 5.54C36.1201 5.11 35.9801 4.68 35.8301 4.25C38.4001 3.39 41.0301 2.69 43.6801 2.15C43.7501 2.47 43.8101 2.8 43.8801 3.12C42.8201 4.87 41.8601 6.64 41.0001 8.42C40.8301 8.77 40.6401 9.13 40.4301 9.49C40.2201 9.85 40.0201 10.22 39.8101 10.58C39.7101 10.42 39.6101 10.27 39.5101 10.11C39.9301 9.95 40.3601 9.8 40.7901 9.68C41.2201 9.55 41.6501 9.43 42.0801 9.32C43.0601 9.07 44.0401 8.85 45.0301 8.65C45.1201 9.09 45.2101 9.54 45.3001 9.98C42.9801 10.45 40.6801 11.06 38.4201 11.82V11.83ZM38.0901 1C38.5201 1.2 38.9401 1.39 39.3501 1.6C39.6101 1.22 39.8701 0.83 40.1401 0.45C40.7701 0.29 41.4001 0.14 42.0301 0V0.05C41.4601 0.72 40.8901 1.4 40.3501 2.09C39.8101 2.23 39.2701 2.37 38.7401 2.52C37.9201 2.2 37.0901 1.89 36.2401 1.6V1.56C36.8501 1.36 37.4701 1.18 38.0901 1Z" fill="white"/>
<path d="M47.58 1.48047C47.96 4.12047 48.33 6.76047 48.71 9.40047C48.08 9.49047 47.45 9.59047 46.82 9.70047C46.35 7.07047 45.89 4.44047 45.42 1.82047C46.14 1.70047 46.86 1.58047 47.57 1.48047H47.58Z" fill="white"/>
<path d="M53.4201 8.93984C53.2601 6.27984 53.1101 3.60984 52.9501 0.949844C54.3301 0.869844 55.7101 0.839844 57.1001 0.839844C57.9101 0.839844 58.6001 0.979844 59.1501 1.22984C59.7001 1.47984 60.1201 1.81984 60.3801 2.23984C60.6501 2.65984 60.7601 3.13984 60.7301 3.65984C60.7001 4.18984 60.5201 4.64984 60.2201 5.02984C59.9101 5.41984 59.4901 5.70984 58.9601 5.91984C58.4201 6.12984 57.7801 6.22984 57.0301 6.21984C56.2101 6.21984 55.4001 6.21984 54.5801 6.25984L54.5301 4.93984C55.2501 4.90984 55.9801 4.89984 56.7001 4.89984C57.1201 4.89984 57.4601 4.84984 57.7401 4.72984C58.0101 4.61984 58.2201 4.45984 58.3601 4.25984C58.5001 4.05984 58.5701 3.81984 58.5801 3.55984C58.5801 3.28984 58.5301 3.04984 58.4001 2.84984C58.2701 2.63984 58.0601 2.47984 57.7801 2.35984C57.5001 2.23984 57.1401 2.17984 56.7001 2.17984C56.1901 2.17984 55.6801 2.17984 55.1701 2.19984C55.2301 4.41984 55.2801 6.62984 55.3401 8.84984C54.7001 8.86984 54.0701 8.88984 53.4301 8.92984L53.4201 8.93984Z" fill="white"/>
<path d="M61.71 9.05984C61.94 6.39984 62.18 3.73984 62.41 1.08984C63.79 1.20984 65.16 1.36984 66.53 1.57984C67.33 1.69984 67.99 1.91984 68.51 2.23984C69.03 2.54984 69.39 2.92984 69.6 3.36984C69.81 3.80984 69.85 4.28984 69.74 4.79984C69.63 5.31984 69.39 5.72984 69.04 6.04984C68.68 6.36984 68.23 6.56984 67.67 6.67984C67.11 6.77984 66.46 6.77984 65.72 6.65984C64.86 6.52984 64.01 6.41984 63.15 6.32984C63.2 5.88984 63.24 5.44984 63.29 5.00984C64.06 5.08984 64.83 5.18984 65.59 5.29984C66.01 5.35984 66.36 5.36984 66.64 5.31984C66.92 5.26984 67.14 5.16984 67.31 5.01984C67.47 4.86984 67.58 4.65984 67.63 4.39984C67.68 4.12984 67.65 3.88984 67.54 3.68984C67.43 3.48984 67.25 3.30984 66.99 3.16984C66.73 3.02984 66.38 2.92984 65.94 2.85984C65.43 2.78984 64.93 2.71984 64.42 2.65984C64.15 4.85984 63.89 7.05984 63.62 9.25984C62.99 9.17984 62.35 9.11984 61.72 9.06984L61.71 9.05984ZM66.86 9.73984C66.33 8.40984 65.75 7.08984 65.12 5.77984C65.85 5.87984 66.58 5.98984 67.3 6.11984C67.9 7.45984 68.45 8.79984 68.94 10.1498C68.25 9.99984 67.55 9.86984 66.86 9.73984Z" fill="white"/>
<path d="M73.97 11.5806C73.18 11.3306 72.52 10.9706 71.96 10.4906C71.4 10.0006 71.01 9.42065 70.77 8.74065C70.53 8.05065 70.5 7.29065 70.7 6.44065C70.9 5.59065 71.27 4.92065 71.83 4.42065C72.39 3.92065 73.08 3.61065 73.89 3.50065C74.7 3.39065 75.56 3.47065 76.47 3.75065C77.38 4.03065 78.13 4.46065 78.73 5.02065C79.33 5.58065 79.71 6.22065 79.88 6.95065C80.05 7.68065 79.97 8.45065 79.64 9.25065C79.31 10.0606 78.85 10.6606 78.25 11.0906C77.66 11.5106 76.99 11.7606 76.26 11.8406C75.52 11.9206 74.77 11.8406 73.98 11.5806H73.97ZM74.41 10.1906C74.89 10.3406 75.33 10.3806 75.75 10.3106C76.17 10.2406 76.55 10.0506 76.88 9.75065C77.21 9.45065 77.48 9.03065 77.68 8.50065C77.88 7.96065 77.94 7.46065 77.87 7.02065C77.8 6.57065 77.6 6.19065 77.28 5.87065C76.96 5.55065 76.54 5.30065 76.02 5.14065C75.51 4.98065 75.02 4.94065 74.57 5.02065C74.12 5.10065 73.74 5.31065 73.42 5.63065C73.1 5.95065 72.87 6.39065 72.72 6.95065C72.57 7.50065 72.55 7.99065 72.65 8.43065C72.75 8.87065 72.95 9.23065 73.25 9.53065C73.55 9.83065 73.94 10.0506 74.41 10.2006V10.1906Z" fill="white"/>
<path d="M82.56 15.0898C81.88 14.7498 81.33 14.3798 80.91 13.9598C80.48 13.5498 80.2 13.0998 80.06 12.6198C79.92 12.1398 79.95 11.6298 80.16 11.1098C80.76 11.3698 81.36 11.6298 81.96 11.9098C81.87 12.1698 81.87 12.4098 81.94 12.6498C82.02 12.8898 82.16 13.1098 82.38 13.3098C82.59 13.5198 82.86 13.6898 83.18 13.8598C83.5 14.0198 83.79 14.1298 84.06 14.1698C84.33 14.2198 84.57 14.2098 84.78 14.1498C84.99 14.0898 85.14 13.9598 85.24 13.7898C85.33 13.6298 85.34 13.4598 85.28 13.2898C85.22 13.1198 85.1 12.9298 84.91 12.7298C84.73 12.5298 84.49 12.3198 84.19 12.0898C83.9 11.8598 83.6 11.6298 83.3 11.3998C82.61 10.8798 82.11 10.3698 81.81 9.84983C81.51 9.32983 81.47 8.80983 81.7 8.26983C81.89 7.82983 82.21 7.49983 82.68 7.30983C83.14 7.11983 83.69 7.05983 84.33 7.12983C84.97 7.20983 85.64 7.41983 86.34 7.76983C87.05 8.12983 87.62 8.54983 88.05 9.01983C88.47 9.47983 88.74 9.95983 88.84 10.4398C88.94 10.9198 88.88 11.3598 88.65 11.7698C88.05 11.4198 87.45 11.0798 86.84 10.7498C86.96 10.4498 86.92 10.1398 86.72 9.83983C86.52 9.52983 86.17 9.24983 85.69 9.00983C85.36 8.84983 85.07 8.73983 84.8 8.69983C84.53 8.65983 84.31 8.66983 84.12 8.73983C83.94 8.80983 83.81 8.91983 83.73 9.08983C83.64 9.26983 83.65 9.44983 83.73 9.62983C83.81 9.81983 83.95 9.99983 84.14 10.1798C84.33 10.3598 84.54 10.5398 84.77 10.7198C85.02 10.9098 85.27 11.1098 85.52 11.2998C85.87 11.5698 86.17 11.8498 86.44 12.1398C86.7 12.4298 86.91 12.7298 87.05 13.0298C87.2 13.3298 87.27 13.6298 87.27 13.9298C87.27 14.2298 87.18 14.5198 87.01 14.8098C86.76 15.2298 86.42 15.5098 85.98 15.6698C85.54 15.8298 85.04 15.8598 84.46 15.7698C83.88 15.6798 83.26 15.4498 82.57 15.1098L82.56 15.0898Z" fill="white"/>
<path d="M90.14 11.5799C90.38 11.1899 90.62 10.8099 90.85 10.4199C93.38 11.9799 95.82 13.7299 98.15 15.6599C97.86 16.0099 97.57 16.3599 97.28 16.7099C96.43 15.9999 95.56 15.3199 94.68 14.6599C93.36 16.4399 92.04 18.2199 90.71 19.9999C90.18 19.5999 89.64 19.2199 89.1 18.8399C90.36 17.0099 91.62 15.1899 92.88 13.3599C91.98 12.7399 91.06 12.1399 90.13 11.5699L90.14 11.5799Z" fill="white"/>
<path d="M96.8901 25.4999C96.2701 24.8799 95.8201 24.2199 95.5301 23.5099C95.2301 22.7999 95.1301 22.0799 95.2201 21.3399C95.3101 20.6099 95.6301 19.8999 96.1901 19.2399C96.7501 18.5699 97.4001 18.1499 98.1401 17.9699C98.8801 17.7999 99.6501 17.8499 100.45 18.1499C101.25 18.4499 102.01 18.9499 102.71 19.6599C103.42 20.3699 103.93 21.1499 104.23 21.9499C104.53 22.7599 104.6 23.5399 104.43 24.2999C104.27 25.0499 103.84 25.6999 103.18 26.2699C102.52 26.8299 101.81 27.1399 101.07 27.2199C100.33 27.2999 99.6101 27.1799 98.8901 26.8799C98.1701 26.5699 97.5201 26.1099 96.9001 25.4899L96.8901 25.4999ZM97.9201 24.4699C98.2901 24.8399 98.6801 25.1099 99.1001 25.2499C99.5201 25.3999 99.9501 25.4199 100.39 25.3199C100.83 25.2199 101.27 24.9799 101.69 24.5899C102.12 24.1999 102.4 23.7899 102.53 23.3399C102.66 22.8999 102.65 22.4499 102.5 21.9999C102.35 21.5499 102.07 21.1199 101.67 20.7099C101.27 20.2999 100.84 20.0299 100.39 19.8799C99.9401 19.7299 99.5001 19.7299 99.0601 19.8599C98.6201 19.9899 98.2101 20.2699 97.8201 20.6999C97.4401 21.1199 97.1901 21.5499 97.0901 21.9899C96.9801 22.4299 97.0101 22.8599 97.1501 23.2799C97.3001 23.6999 97.5501 24.0899 97.9201 24.4699Z" fill="white"/>
<path d="M101.11 30.0805C103.19 28.4105 105.27 26.7405 107.35 25.0605C108.29 26.2405 109.2 27.4705 110.08 28.7405C110.59 29.4805 110.93 30.1905 111.09 30.8405C111.25 31.4905 111.25 32.0605 111.09 32.5505C110.93 33.0405 110.62 33.4105 110.17 33.6805C109.72 33.9505 109.24 34.0405 108.75 33.9705C108.26 33.8905 107.77 33.6605 107.28 33.2605C106.79 32.8705 106.31 32.3205 105.83 31.6305C105.28 30.8405 104.72 30.0605 104.15 29.3105C104.5 29.0405 104.85 28.7705 105.2 28.5005C105.71 29.1805 106.22 29.8705 106.71 30.5705C106.98 30.9505 107.23 31.2505 107.48 31.4505C107.72 31.6505 107.96 31.7605 108.2 31.7905C108.43 31.8205 108.66 31.7605 108.88 31.6105C109.11 31.4605 109.26 31.2705 109.32 31.0405C109.39 30.8105 109.38 30.5305 109.28 30.2205C109.18 29.9005 109 29.5505 108.72 29.1405C108.39 28.6705 108.06 28.2205 107.73 27.7605C105.95 29.0805 104.17 30.4105 102.4 31.7305C101.98 31.1605 101.56 30.6105 101.12 30.0705L101.11 30.0805ZM104.46 34.7505C105.02 33.3705 105.53 31.9705 106 30.5305C106.47 31.2005 106.93 31.8705 107.38 32.5605C106.87 34.0005 106.31 35.4105 105.72 36.7805C105.31 36.0905 104.89 35.4105 104.46 34.7405V34.7505Z" fill="white"/>
<path d="M69.3381 58.6923L58.8679 69.0676C57.8142 70.1224 55.978 70.1247 54.9198 69.0654L44.4508 58.6923C44.232 58.4757 43.8781 58.478 43.6616 58.6967C43.445 58.9144 43.4461 59.2694 43.6649 59.4859L54.1318 69.8568C54.8696 70.5946 55.8508 71.0009 56.8944 71.0009C57.9381 71.0009 58.9193 70.5946 59.6549 69.859L70.124 59.4859C70.3427 59.2694 70.3439 58.9144 70.1273 58.6967C69.9108 58.478 69.558 58.4757 69.3381 58.6923Z" fill="white"/>
<path d="M69.3392 47.1619L58.0776 58.2315C57.447 58.8633 56.3464 58.8666 55.7068 58.2281L44.4496 47.1619C44.2286 46.9453 43.8759 46.9476 43.6605 47.1686C43.4439 47.3885 43.4473 47.7423 43.6672 47.9577L54.921 59.0207C55.4478 59.5486 56.1488 59.8377 56.8944 59.8377C57.6401 59.8377 58.3411 59.5475 58.8646 59.024L70.1228 47.9566C70.3427 47.7412 70.3461 47.3873 70.1295 47.1675C69.9141 46.9464 69.5603 46.9442 69.3404 47.1608L69.3392 47.1619Z" fill="white"/>
</svg>
