<svg preserveAspectRatio="xMidYMid meet" width="100%" height="100%" overflow="visible" style="display: block;" viewBox="0 0 40 48" fill="none" xmlns="http://www.w3.org/2000/svg">
<path id="radna mjesta sa privatnim ormaricem icon" d="M34 16.552V14C34 6.28 27.718 0 20 0C12.282 0 6 6.28 6 14V16.552C2.516 17.794 0 21.094 0 25V39C0 43.962 4.038 48 9 48H31C35.962 48 40 43.962 40 39V25C40 21.094 37.484 17.796 34 16.552ZM8 14C8 7.382 13.382 2 20 2C26.618 2 32 7.382 32 14V16.102C31.668 16.064 31.342 16 31 16H9C8.658 16 8.332 16.064 8 16.102V14ZM38 39C38 42.86 34.86 46 31 46H9C5.14 46 2 42.86 2 39V25C2 21.14 5.14 18 9 18H31C34.86 18 38 21.14 38 25V39ZM21 29V35C21 35.552 20.552 36 20 36C19.448 36 19 35.552 19 35V29C19 28.448 19.448 28 20 28C20.552 28 21 28.448 21 29Z" fill="var(--fill-0, white)"/>
</svg>
