<svg preserveAspectRatio="xMidYMid meet" width="100%" height="100%" overflow="visible" style="display: block;" viewBox="0 0 48 36" fill="none" xmlns="http://www.w3.org/2000/svg">
<path id="wifi icon" d="M23.994 36C21.7947 36 19.9953 34.201 19.9953 32.0022C19.9953 29.8034 21.7947 28.0044 23.994 28.0044C26.1933 28.0044 27.9927 29.8034 27.9927 32.0022C27.9927 34.201 26.1933 36 23.994 36ZM23.994 30.0033C22.8943 30.0033 21.9946 30.9028 21.9946 32.0022C21.9946 33.1016 22.8943 34.0011 23.994 34.0011C25.0936 34.0011 25.9934 33.1016 25.9934 32.0022C25.9934 30.9028 25.0936 30.0033 23.994 30.0033ZM37.6096 21.7679C38.0295 21.4081 38.0695 20.7685 37.7096 20.3487C37.3897 19.9889 37.0698 19.6091 36.7099 19.2693C33.311 15.8712 28.7925 13.9922 23.994 13.9922C19.1955 13.9922 14.677 15.8712 11.2781 19.2693C10.9382 19.6091 10.5983 19.9689 10.2784 20.3487C9.91851 20.7685 9.95849 21.4081 10.3784 21.7679C10.7982 22.1277 11.438 22.0877 11.7979 21.668C12.0778 21.3282 12.3777 21.0083 12.6776 20.7085C15.6967 17.6902 19.7154 16.0311 23.994 16.0311C28.2726 16.0311 32.2913 17.6902 35.3104 20.7085C35.6303 21.0283 35.9102 21.3481 36.1901 21.668C36.39 21.9078 36.6699 22.0078 36.9498 22.0078C37.1898 22.0078 37.4097 21.9278 37.6096 21.7679ZM47.6664 11.9733C48.0863 11.5936 48.1063 10.9739 47.7464 10.5541C47.3865 10.1544 47.0066 9.77457 46.6267 9.37479C40.5887 3.33814 32.5513 0 24.014 0C15.4767 0 7.41931 3.33815 1.38124 9.39478C1.00136 9.77457 0.621486 10.1743 0.261602 10.5741C-0.118277 10.9939 -0.0782895 11.6135 0.341576 11.9933C0.761441 12.3531 1.38124 12.3331 1.76112 11.9134C2.10101 11.5336 2.4409 11.1738 2.80079 10.814C8.45897 5.15713 15.9966 2.03887 24.014 2.03887C32.0314 2.03887 39.549 5.15713 45.2272 10.814C45.5871 11.1738 45.927 11.5336 46.2669 11.9134C46.4668 12.1333 46.7267 12.2532 47.0066 12.2532C47.2465 12.2532 47.4865 12.1732 47.6664 11.9933V11.9733Z" fill="var(--fill-0, white)"/>
</svg>
