<svg preserveAspectRatio="none" width="100%" height="100%" overflow="visible" style="display: block;" viewBox="0 0 48 48" fill="none" xmlns="http://www.w3.org/2000/svg">
<path id="kancelarijska oprema icon" d="M39 12H38V5C38 2.244 35.758 0 33 0H15C12.244 0 10 2.244 10 5V12H9C4.038 12 0 16.038 0 21V33C0 37.962 4.038 42 9 42H10V43C10 45.756 12.244 48 15 48H33C35.758 48 38 45.756 38 43V42H39C43.962 42 48 37.962 48 33V21C48 16.038 43.962 12 39 12ZM12 5C12 3.346 13.346 2 15 2H33C34.654 2 36 3.346 36 5V12H12V5ZM36 43C36 44.654 34.654 46 33 46H15C13.346 46 12 44.654 12 43V33C12 31.346 13.346 30 15 30H33C34.654 30 36 31.346 36 33V43ZM46 33C46 36.86 42.86 40 39 40H38V33C38 30.244 35.758 28 33 28H15C12.244 28 10 30.244 10 33V40H9C5.14 40 2 36.86 2 33V21C2 17.14 5.14 14 9 14H39C42.86 14 46 17.14 46 21V33ZM38 21C38 21.552 37.552 22 37 22H31C30.448 22 30 21.552 30 21C30 20.448 30.448 20 31 20H37C37.552 20 38 20.448 38 21Z" fill="var(--fill-0, white)"/>
</svg>
