<svg preserveAspectRatio="xMidYMid meet" width="100%" height="100%" overflow="visible" style="display: block;" viewBox="0 0 48 48" fill="none" xmlns="http://www.w3.org/2000/svg">
<g id="fleksibilno radno vrijeme icon">
<path id="Vector" d="M24 48C10.766 48 0 37.234 0 24C0 10.766 10.766 0 24 0C37.234 0 48 10.766 48 24C48 37.234 37.234 48 24 48ZM24 2C11.87 2 2 11.87 2 24C2 36.13 11.87 46 24 46C36.13 46 46 36.13 46 24C46 11.87 36.13 2 24 2Z" fill="var(--fill-0, white)"/>
<path id="Vector_2" d="M15.9999 31C15.6779 31 15.3619 30.844 15.1679 30.554C14.8619 30.096 14.9859 29.474 15.4459 29.168L23.9999 23.464V11C23.9999 10.448 24.4479 10 24.9999 10C25.5519 10 25.9999 10.448 25.9999 11V24C25.9999 24.334 25.8319 24.646 25.5539 24.832L16.5539 30.832C16.3839 30.946 16.1899 31 15.9999 31Z" fill="var(--fill-0, white)"/>
</g>
</svg>
