<svg preserveAspectRatio="xMidYMid meet" width="100%" height="100%" overflow="visible" style="display: block;" viewBox="0 0 48 48" fill="none" xmlns="http://www.w3.org/2000/svg">
<path id="privatni parking icon" d="M27 10H21C17.14 10 14 13.14 14 17V37C14 37.552 14.448 38 15 38C15.552 38 16 37.552 16 37V28H27C31.962 28 36 23.962 36 19C36 14.038 31.962 10 27 10ZM27 26H16V17C16 14.244 18.242 12 21 12H27C30.86 12 34 15.14 34 19C34 22.86 30.86 26 27 26ZM39 0H9C4.038 0 0 4.038 0 9V39C0 43.962 4.038 48 9 48H39C43.962 48 48 43.962 48 39V9C48 4.038 43.962 0 39 0ZM46 39C46 42.86 42.86 46 39 46H9C5.14 46 2 42.86 2 39V9C2 5.14 5.14 2 9 2H39C42.86 2 46 5.14 46 9V39Z" fill="var(--fill-0, white)"/>
</svg>
