<svg preserveAspectRatio="xMidYMid meet" width="100%" height="100%" overflow="visible" style="display: block;" viewBox="0 0 48.0034 48" fill="none" xmlns="http://www.w3.org/2000/svg">
<path id="rad uz prirodu icon" d="M0.00142052 23C0.00142052 22.448 0.449421 22 1.00142 22H9.31342C9.78142 22 10.1854 21.678 10.2734 21.234C10.5734 19.736 11.1354 18.346 11.8654 17.072L3.49942 12.202C3.02142 11.924 2.85942 11.314 3.13742 10.834C3.41542 10.358 4.02742 10.192 4.50542 10.474L12.9994 15.418C14.0054 14.132 15.2174 13.036 16.5974 12.17L11.5534 3.502C11.2754 3.026 11.4374 2.414 11.9154 2.134C12.3894 1.854 13.0034 2.018 13.2834 2.498L18.3694 11.242C19.8134 10.602 21.3714 10.208 23.0034 10.088V1C23.0034 0.448 23.4514 0 24.0034 0C24.5554 0 25.0034 0.448 25.0034 1V10.088C26.6454 10.208 28.2094 10.606 29.6614 11.252L34.7534 2.498C35.0314 2.016 35.6434 1.858 36.1214 2.134C36.5994 2.414 36.7614 3.024 36.4854 3.502L31.4354 12.188C32.8094 13.054 34.0154 14.148 35.0174 15.432L43.5334 10.474C44.0054 10.196 44.6214 10.356 44.9014 10.836C45.1814 11.316 45.0194 11.926 44.5414 12.206L36.1494 17.092C36.8754 18.362 37.4334 19.746 37.7314 21.238C37.8194 21.682 38.2234 22.004 38.6914 22.004H47.0034C47.5554 22.004 48.0034 22.452 48.0034 23.004C48.0034 23.556 47.5554 24.004 47.0034 24.004H38.6914C37.2734 24.004 36.0454 23.006 35.7694 21.63C34.6514 16.052 29.7054 12.004 24.0034 12.004C18.3014 12.004 13.3554 16.052 12.2374 21.632C11.9614 23.006 10.7334 24.004 9.31542 24.004H1.00142C0.449421 24.004 0.00142052 23.556 0.00142052 23.004V23ZM46.3494 44.708C45.3814 45.54 44.1274 46 42.8194 46C40.4834 46 38.1894 44.56 37.4834 42.652C37.1934 41.866 35.8974 41.866 35.6074 42.652C34.9014 44.56 32.6094 46 30.2734 46C27.9374 46 25.6434 44.56 24.9374 42.652C24.6474 41.866 23.3514 41.866 23.0614 42.652C22.3554 44.56 20.0614 46 17.7274 46C15.3934 46 13.0974 44.56 12.3934 42.654C12.2474 42.262 11.8734 42 11.4554 42C11.0374 42 10.6634 42.26 10.5174 42.652C9.81142 44.56 7.51742 46 5.18342 46C3.87542 46 2.62142 45.542 1.65142 44.708C1.23542 44.348 0.603421 44.396 0.241421 44.814C-0.118579 45.234 -0.0705795 45.864 0.349421 46.224C1.68142 47.368 3.39742 48 5.18342 48C7.66142 48 10.0514 46.812 11.4554 45.012C12.8614 46.812 15.2474 48 17.7274 48C20.2074 48 22.5954 46.812 23.9994 45.012C25.4054 46.812 27.7934 48 30.2734 48C32.7534 48 35.1394 46.812 36.5454 45.012C37.9514 46.812 40.3394 48 42.8194 48C44.6054 48 46.3214 47.37 47.6534 46.224C48.0714 45.864 48.1194 45.234 47.7594 44.814C47.4014 44.396 46.7714 44.35 46.3494 44.708ZM46.3494 32.708C45.3814 33.54 44.1274 34 42.8194 34C40.4834 34 38.1894 32.56 37.4834 30.652C37.1934 29.866 35.8974 29.866 35.6074 30.652C34.9014 32.56 32.6094 34 30.2734 34C27.9374 34 25.6434 32.56 24.9374 30.652C24.6474 29.866 23.3514 29.866 23.0614 30.652C22.3554 32.56 20.0614 34 17.7274 34C15.3934 34 13.0974 32.56 12.3934 30.654C12.2474 30.262 11.8734 30 11.4554 30C11.0374 30 10.6634 30.26 10.5174 30.652C9.81142 32.56 7.51742 34 5.18342 34C3.87542 34 2.62142 33.542 1.65142 32.708C1.23542 32.35 0.603421 32.394 0.241421 32.814C-0.118579 33.234 -0.0705795 33.864 0.349421 34.224C1.68142 35.368 3.39742 36 5.18342 36C7.66142 36 10.0514 34.812 11.4554 33.012C12.8614 34.812 15.2474 36 17.7274 36C20.2074 36 22.5954 34.812 23.9994 33.012C25.4054 34.812 27.7934 36 30.2734 36C32.7534 36 35.1394 34.812 36.5454 33.012C37.9514 34.812 40.3394 36 42.8194 36C44.6054 36 46.3214 35.37 47.6534 34.224C48.0714 33.864 48.1194 33.234 47.7594 32.814C47.4014 32.396 46.7714 32.352 46.3494 32.708Z" fill="var(--fill-0, white)"/>
</svg>
