<svg preserveAspectRatio="none" width="100%" height="100%" overflow="visible" style="display: block;" viewBox="0 0 48 48" fill="none" xmlns="http://www.w3.org/2000/svg">
<path id="konferencijski sto icon" d="M40 0H19C18.448 0 18 0.448 18 1C18 1.552 18.448 2 19 2H40C43.308 2 46 4.692 46 8V22C46 25.308 43.308 28 40 28H19C18.448 28 18 28.448 18 29C18 29.552 18.448 30 19 30H28V34.142C26.28 34.59 25 36.142 25 38C25 40.206 26.794 42 29 42C31.206 42 33 40.206 33 38C33 36.142 31.72 34.59 30 34.142V30H40C44.412 30 48 26.412 48 22V8C48 3.588 44.412 0 40 0ZM31 38C31 39.102 30.104 40 29 40C27.896 40 27 39.102 27 38C27 36.898 27.896 36 29 36C30.104 36 31 36.898 31 38ZM9 10C11.756 10 14 7.756 14 5C14 2.244 11.756 0 9 0C6.244 0 4 2.244 4 5C4 7.756 6.244 10 9 10ZM9 2C10.654 2 12 3.346 12 5C12 6.654 10.654 8 9 8C7.346 8 6 6.654 6 5C6 3.346 7.346 2 9 2ZM14 19V47C14 47.552 13.552 48 13 48C12.448 48 12 47.552 12 47V34H7C6.658 34 6.33 33.946 6 33.898V47C6 47.552 5.552 48 5 48C4.448 48 4 47.552 4 47V33.298C1.644 32.17 0 29.782 0 27V19C0 15.14 3.14 12 7 12H29C29.552 12 30 12.448 30 13C30 13.552 29.552 14 29 14H7C4.244 14 2 16.244 2 19V27C2 29.756 4.244 32 7 32H12V19C12 18.448 12.448 18 13 18C13.552 18 14 18.448 14 19Z" fill="var(--fill-0, white)"/>
</svg>
