<svg preserveAspectRatio="xMidYMid meet" width="100%" height="100%" overflow="visible" style="display: block;" viewBox="0 0 48 48" fill="none" xmlns="http://www.w3.org/2000/svg">
<path id="zoom room icon" d="M24 48C10.766 48 0 37.234 0 24C0 10.766 10.766 0 24 0C37.234 0 48 10.766 48 24C48 37.234 37.234 48 24 48ZM24 2C11.87 2 2 11.87 2 24C2 36.13 11.87 46 24 46C36.13 46 46 36.13 46 24C46 11.87 36.13 2 24 2ZM30.808 38C21.862 38 10 26.136 10 17.19C10 15.262 10.73 13.472 12.054 12.148L13.404 10.97C14.616 9.748 16.958 9.704 18.27 11.016L20.522 13.934C21.094 14.492 21.456 15.364 21.456 16.294C21.456 17.224 21.094 18.096 20.436 18.752L19.038 20.518C20.792 24.562 23.558 27.336 27.47 28.968L29.29 27.518C30.646 26.208 32.82 26.218 34.164 27.56L36.886 29.64C38.34 31.082 38.34 33.288 36.984 34.642L35.898 35.892C34.528 37.268 32.738 37.996 30.81 37.996L30.808 38ZM15.81 12C15.418 12 15.046 12.154 14.768 12.432L13.418 13.61C12.522 14.508 12 15.796 12 17.19C12 25.492 23.662 36 30.808 36C32.2 36 33.49 35.478 34.434 34.532L35.52 33.282C36.144 32.658 36.142 31.72 35.566 31.144L32.844 29.064C32.17 28.402 31.232 28.402 30.658 28.978L27.81 31.252L27.276 31.048C22.432 29.198 18.96 25.728 16.956 20.734L16.74 20.194L18.944 17.422C19.3 17.058 19.454 16.688 19.454 16.294C19.454 15.9 19.3 15.53 19.02 15.252L16.768 12.334C16.574 12.152 16.204 12 15.81 12Z" fill="var(--fill-0, white)"/>
</svg>
