<svg preserveAspectRatio="xMidYMid meet" width="100%" height="100%" overflow="visible" style="display: block;" viewBox="0 0 47.9996 47.998" fill="none" xmlns="http://www.w3.org/2000/svg">
<path id="kafa i topli napici icon" d="M17.5996 13.606C18.3056 14.166 19.1516 14.446 19.9996 14.446C20.8476 14.446 21.6936 14.166 22.3996 13.606C24.5656 11.888 27.9996 7.99 27.9996 4.85C27.9996 2.176 25.9816 0 23.4996 0C22.1216 0 20.8396 0.634 19.9996 1.592C19.1596 0.634 17.8776 0 16.4996 0C14.0176 0 11.9996 2.176 11.9996 4.85C11.9996 7.99 15.4336 11.888 17.5996 13.606ZM16.4996 2C17.9076 2 18.9996 3.134 18.9996 4.112C18.9996 4.664 19.4476 5.112 19.9996 5.112C20.5516 5.112 20.9996 4.664 20.9996 4.112C20.9996 3.136 22.0916 2 23.4996 2C24.8776 2 25.9996 3.28 25.9996 4.85C25.9996 7.132 23.1096 10.488 21.1576 12.04C20.4756 12.58 19.5236 12.58 18.8436 12.04C16.8896 10.49 13.9996 7.132 13.9996 4.85C13.9996 3.28 15.1216 2 16.4996 2ZM39.7996 26H38.6856C38.7956 25.164 38.8916 24.344 38.9716 23.556C39.1136 22.126 38.6476 20.698 37.6896 19.64C36.7496 18.6 35.4056 18.006 34.0056 18.006L4.99361 18C3.59361 18 2.24961 18.596 1.30761 19.636C0.349614 20.694 -0.118386 22.122 0.025614 23.55C0.687614 30.194 2.53561 39.016 4.65561 42.276C6.98561 45.86 11.0136 47.998 15.4316 47.998H23.5676C27.9856 47.998 32.0136 45.86 34.3436 42.276C34.7276 41.686 35.1016 40.908 35.4616 39.998H39.7996C44.2436 39.998 47.9996 36.4 47.9996 32.14C47.9996 28.294 44.9336 25.998 39.7996 25.998V26ZM23.5656 46H15.4316C11.6936 46 8.29161 44.202 6.33161 41.188C4.67761 38.646 2.74361 30.646 2.01561 23.352C1.92961 22.484 2.21161 21.62 2.79161 20.978C3.36161 20.348 4.14361 20 4.99361 20L34.0056 20.006C34.8536 20.006 35.6356 20.354 36.2076 20.984C36.7876 21.622 37.0696 22.488 36.9816 23.358C36.2556 30.648 34.3196 38.646 32.6676 41.188C30.7076 44.202 27.3056 46 23.5676 46H23.5656ZM39.7996 38H36.1656C37.0736 35.128 37.8496 31.504 38.3956 28H39.7996C42.1156 28 45.9996 28.54 45.9996 32.142C45.9996 35.264 43.1036 38 39.7996 38Z" fill="var(--fill-0, white)"/>
</svg>
