<svg width="209" height="66" viewBox="0 0 209 66" fill="none" xmlns="http://www.w3.org/2000/svg">
<path d="M33.34 25.01V41.33C32.69 41.56 31.99 41.69 31.26 41.69C29.06 41.69 27.12 40.56 26.01 38.83C25.38 37.85 25.01 36.69 25.01 35.44V25.02C25.01 20.42 21.28 16.68 16.67 16.68C12.06 16.68 8.33 20.41 8.33 25.02V35.44C8.33 36.69 7.96 37.86 7.33 38.83C6.21 40.55 4.28 41.69 2.08 41.69C1.35 41.69 0.64 41.56 0 41.33V25.01C0 18.84 3.35 13.45 8.34 10.57C10.79 9.15 13.64 8.34 16.68 8.34C19.72 8.34 22.56 9.15 25.02 10.57C30 13.45 33.36 18.84 33.36 25.01H33.34Z" fill="#717766"/>
<path d="M54.18 8.34C44.97 8.34 37.51 15.81 37.51 25.01C37.51 34.21 44.98 41.68 54.18 41.68C63.38 41.68 70.85 34.21 70.85 25.01C70.85 15.81 63.38 8.34 54.18 8.34ZM54.18 33.35C49.58 33.35 45.84 29.62 45.84 25.01C45.84 20.4 49.57 16.67 54.18 16.67C58.79 16.67 62.52 20.4 62.52 25.01C62.52 29.62 58.79 33.35 54.18 33.35Z" fill="#717766"/>
<path d="M162.55 10.57C160.1 9.15 157.25 8.34 154.21 8.34C145 8.34 137.54 15.81 137.54 25.01C137.54 34.21 145.01 41.68 154.21 41.68C157.25 41.68 160.09 40.87 162.55 39.45C162.89 39.26 163.23 39.05 163.55 38.82C164.67 40.54 166.6 41.68 168.8 41.68C169.53 41.68 170.24 41.55 170.88 41.32V25.01C170.88 18.84 167.53 13.45 162.54 10.57H162.55ZM154.21 33.35C149.61 33.35 145.87 29.62 145.87 25.01C145.87 20.4 149.6 16.67 154.21 16.67C158.82 16.67 162.55 20.4 162.55 25.01C162.55 29.62 158.82 33.35 154.21 33.35Z" fill="#717766"/>
<path d="M133.38 25.01V41.33C132.73 41.56 132.03 41.69 131.3 41.69C129.1 41.69 127.16 40.56 126.05 38.83C125.42 37.85 125.05 36.69 125.05 35.44V25.02C125.05 20.42 121.32 16.68 116.71 16.68C112.1 16.68 108.37 20.41 108.37 25.02V37.52C108.37 38.13 108.24 38.71 108 39.24C107.35 40.68 105.89 41.69 104.2 41.69C102.51 41.69 101.06 40.69 100.4 39.24C100.16 38.72 100.03 38.13 100.03 37.52V25.02C100.03 20.42 96.3 16.68 91.69 16.68C87.08 16.68 83.35 20.41 83.35 25.02V35.44C83.35 36.69 82.98 37.86 82.35 38.83C81.23 40.55 79.3 41.69 77.1 41.69C76.37 41.69 75.66 41.56 75.02 41.33V25.01C75.02 18.84 78.37 13.45 83.36 10.57C85.81 9.15 88.66 8.34 91.7 8.34C94.74 8.34 97.58 9.15 100.04 10.57C101.61 11.48 103.02 12.63 104.21 13.98C105.4 12.63 106.81 11.47 108.38 10.57C110.83 9.15 113.68 8.34 116.72 8.34C119.76 8.34 122.6 9.15 125.06 10.57C130.04 13.45 133.4 18.84 133.4 25.01H133.38Z" fill="#717766"/>
<path d="M206.32 0C202.87 0 200.07 2.8 200.07 6.25V10.57C197.62 9.15 194.77 8.34 191.73 8.34C182.52 8.34 175.06 15.81 175.06 25.01C175.06 34.21 182.53 41.68 191.73 41.68C194.77 41.68 197.61 40.87 200.07 39.45C205.05 36.57 208.41 31.18 208.41 25.01V0.36C207.76 0.13 207.06 0 206.33 0H206.32ZM191.73 33.34C187.13 33.34 183.39 29.61 183.39 25C183.39 20.39 187.12 16.66 191.73 16.66C196.34 16.66 200.07 20.39 200.07 25C200.07 29.61 196.34 33.34 191.73 33.34Z" fill="#717766"/>
<path d="M20.75 59.24C21.13 58.59 21.65 58.09 22.3 57.72C22.95 57.36 23.67 57.17 24.44 57.17C25.33 57.17 26.12 57.39 26.81 57.82C27.5 58.26 28 58.87 28.32 59.67H26.68C26.46 59.23 26.16 58.9 25.78 58.69C25.4 58.48 24.95 58.37 24.45 58.37C23.9 58.37 23.41 58.49 22.97 58.74C22.54 58.99 22.2 59.34 21.96 59.81C21.72 60.28 21.59 60.81 21.59 61.43C21.59 62.05 21.71 62.59 21.96 63.05C22.2 63.51 22.54 63.87 22.97 64.12C23.4 64.37 23.89 64.5 24.45 64.5C24.95 64.5 25.4 64.39 25.78 64.18C26.16 63.96 26.46 63.64 26.68 63.2H28.32C28.01 64 27.51 64.62 26.81 65.05C26.12 65.48 25.33 65.7 24.44 65.7C23.66 65.7 22.94 65.52 22.29 65.15C21.64 64.79 21.13 64.28 20.75 63.63C20.37 62.98 20.18 62.25 20.18 61.43C20.18 60.61 20.37 59.88 20.75 59.23V59.24Z" fill="#8B8F7F"/>
<path d="M33.73 65.17C33.08 64.81 32.56 64.3 32.18 63.65C31.8 63 31.61 62.26 31.61 61.45C31.61 60.64 31.8 59.9 32.18 59.25C32.56 58.6 33.08 58.1 33.73 57.73C34.38 57.37 35.1 57.18 35.87 57.18C36.64 57.18 37.37 57.36 38.02 57.73C38.67 58.09 39.19 58.6 39.56 59.25C39.94 59.9 40.12 60.63 40.12 61.45C40.12 62.27 39.93 63 39.56 63.65C39.18 64.3 38.67 64.81 38.02 65.17C37.37 65.53 36.65 65.72 35.87 65.72C35.09 65.72 34.38 65.54 33.73 65.17ZM37.35 64.15C37.78 63.9 38.12 63.54 38.36 63.07C38.6 62.6 38.73 62.06 38.73 61.44C38.73 60.82 38.61 60.28 38.36 59.82C38.12 59.36 37.78 59 37.35 58.75C36.92 58.5 36.43 58.38 35.87 58.38C35.31 58.38 34.83 58.5 34.39 58.75C33.96 59 33.62 59.35 33.38 59.82C33.14 60.29 33.01 60.82 33.01 61.44C33.01 62.06 33.13 62.6 33.38 63.07C33.62 63.54 33.96 63.9 34.39 64.15C34.82 64.4 35.31 64.53 35.87 64.53C36.43 64.53 36.91 64.4 37.35 64.15Z" fill="#8B8F7F"/>
<path d="M54.5 57.29L52.03 65.63H50.48L48.73 59.32L46.87 65.63H45.33L42.97 57.29H44.42L46.15 64.08L48.02 57.29H49.56L51.3 64.05L53.04 57.29H54.5Z" fill="#8B8F7F"/>
<path d="M59.45 65.17C58.8 64.81 58.28 64.3 57.9 63.65C57.52 63 57.33 62.26 57.33 61.45C57.33 60.64 57.52 59.9 57.9 59.25C58.28 58.6 58.8 58.1 59.45 57.73C60.1 57.37 60.82 57.18 61.59 57.18C62.36 57.18 63.09 57.36 63.74 57.73C64.39 58.09 64.91 58.6 65.28 59.25C65.66 59.9 65.84 60.63 65.84 61.45C65.84 62.27 65.65 63 65.28 63.65C64.9 64.3 64.39 64.81 63.74 65.17C63.09 65.53 62.37 65.72 61.59 65.72C60.81 65.72 60.1 65.54 59.45 65.17ZM63.07 64.15C63.5 63.9 63.84 63.54 64.08 63.07C64.32 62.6 64.45 62.06 64.45 61.44C64.45 60.82 64.33 60.28 64.08 59.82C63.84 59.36 63.5 59 63.07 58.75C62.64 58.5 62.15 58.38 61.59 58.38C61.03 58.38 60.55 58.5 60.11 58.75C59.68 59 59.34 59.35 59.1 59.82C58.86 60.29 58.73 60.82 58.73 61.44C58.73 62.06 58.85 62.6 59.1 63.07C59.34 63.54 59.68 63.9 60.11 64.15C60.54 64.4 61.03 64.53 61.59 64.53C62.15 64.53 62.63 64.4 63.07 64.15Z" fill="#8B8F7F"/>
<path d="M73.69 65.63L71.77 62.29H70.73V65.63H69.36V57.29H72.24C72.88 57.29 73.42 57.4 73.87 57.63C74.31 57.85 74.65 58.15 74.87 58.53C75.09 58.91 75.2 59.33 75.2 59.79C75.2 60.33 75.04 60.83 74.73 61.27C74.41 61.71 73.93 62.02 73.27 62.18L75.33 65.64H73.7L73.69 65.63ZM70.73 61.2H72.24C72.75 61.2 73.14 61.07 73.4 60.82C73.66 60.56 73.79 60.22 73.79 59.79C73.79 59.36 73.66 59.02 73.41 58.78C73.15 58.54 72.77 58.41 72.25 58.41H70.74V61.21L70.73 61.2Z" fill="#8B8F7F"/>
<path d="M83.69 65.63L80.46 61.9V65.63H79.09V57.29H80.46V61.09L83.7 57.29H85.42L81.8 61.47L85.48 65.63H83.69Z" fill="#8B8F7F"/>
<path d="M90.22 57.29V65.63H88.85V57.29H90.22Z" fill="#8B8F7F"/>
<path d="M101.03 65.63H99.66L95.54 59.4V65.63H94.17V57.28H95.54L99.66 63.5V57.28H101.03V65.63Z" fill="#8B8F7F"/>
<path d="M111.03 59.69C110.81 59.27 110.51 58.96 110.13 58.75C109.75 58.54 109.3 58.43 108.8 58.43C108.25 58.43 107.76 58.55 107.32 58.8C106.89 59.05 106.55 59.4 106.31 59.86C106.07 60.32 105.94 60.84 105.94 61.44C105.94 62.04 106.06 62.57 106.31 63.03C106.56 63.49 106.89 63.84 107.32 64.09C107.75 64.34 108.24 64.46 108.8 64.46C109.54 64.46 110.15 64.25 110.61 63.84C111.07 63.43 111.36 62.86 111.46 62.15H108.33V61.06H112.93V62.13C112.84 62.78 112.61 63.37 112.24 63.92C111.87 64.47 111.38 64.9 110.79 65.22C110.19 65.54 109.53 65.71 108.8 65.71C108.02 65.71 107.3 65.53 106.65 65.16C106 64.8 105.49 64.29 105.11 63.64C104.73 62.99 104.54 62.26 104.54 61.44C104.54 60.62 104.73 59.89 105.11 59.24C105.49 58.59 106.01 58.09 106.66 57.72C107.31 57.36 108.03 57.17 108.8 57.17C109.69 57.17 110.48 57.39 111.17 57.82C111.86 58.26 112.36 58.87 112.68 59.67H111.04L111.03 59.69Z" fill="#8B8F7F"/>
<path d="M127.1 57.29V58.41H124.88V65.63H123.51V58.41H121.28V57.29H127.1Z" fill="#8B8F7F"/>
<path d="M134.97 65.63L133.05 62.29H132.01V65.63H130.64V57.29H133.52C134.16 57.29 134.7 57.4 135.15 57.63C135.59 57.85 135.93 58.15 136.15 58.53C136.37 58.91 136.48 59.33 136.48 59.79C136.48 60.33 136.32 60.83 136.01 61.27C135.69 61.71 135.21 62.02 134.55 62.18L136.61 65.64H134.98L134.97 65.63ZM132.01 61.2H133.52C134.03 61.2 134.42 61.07 134.68 60.82C134.94 60.56 135.07 60.22 135.07 59.79C135.07 59.36 134.94 59.02 134.69 58.78C134.43 58.54 134.05 58.41 133.53 58.41H132.02V61.21L132.01 61.2Z" fill="#8B8F7F"/>
<path d="M141.75 58.39V60.84H144.63V61.96H141.75V64.52H144.99V65.64H140.38V57.29H144.99V58.41H141.75V58.39Z" fill="#8B8F7F"/>
<path d="M154.43 62.05C154.74 62.44 154.9 62.89 154.9 63.38C154.9 63.8 154.79 64.19 154.57 64.53C154.35 64.87 154.03 65.14 153.62 65.33C153.2 65.53 152.72 65.62 152.17 65.62H148.83V57.28H152.01C152.58 57.28 153.07 57.38 153.47 57.57C153.88 57.76 154.19 58.02 154.39 58.34C154.6 58.66 154.7 59.03 154.7 59.43C154.7 59.91 154.57 60.31 154.32 60.63C154.06 60.95 153.72 61.19 153.29 61.34C153.74 61.42 154.12 61.66 154.43 62.05ZM150.19 60.79H151.88C152.33 60.79 152.68 60.69 152.93 60.48C153.18 60.28 153.31 59.98 153.31 59.6C153.31 59.22 153.18 58.93 152.93 58.72C152.68 58.51 152.33 58.4 151.88 58.4H150.19V60.79ZM153.13 64.17C153.39 63.95 153.53 63.63 153.53 63.23C153.53 62.83 153.39 62.5 153.11 62.26C152.83 62.02 152.46 61.9 151.99 61.9H150.19V64.5H152.04C152.5 64.5 152.87 64.39 153.13 64.16V64.17Z" fill="#8B8F7F"/>
<path d="M159.92 57.29V65.63H158.55V57.29H159.92Z" fill="#8B8F7F"/>
<path d="M170.73 65.63H169.36L165.24 59.4V65.63H163.87V57.28H165.24L169.36 63.5V57.28H170.73V65.63Z" fill="#8B8F7F"/>
<path d="M179.24 57.29V63.3C179.24 64.04 179.01 64.63 178.56 65.06C178.11 65.49 177.51 65.71 176.78 65.71C176.05 65.71 175.45 65.49 175 65.06C174.55 64.63 174.32 64.04 174.32 63.3H175.7C175.7 63.67 175.8 63.96 175.98 64.18C176.16 64.4 176.43 64.5 176.78 64.5C177.13 64.5 177.4 64.39 177.58 64.17C177.76 63.95 177.86 63.66 177.86 63.3V57.29H179.24Z" fill="#8B8F7F"/>
<path d="M184.98 58.39V60.84H187.86V61.96H184.98V64.52H188.22V65.64H183.61V57.29H188.22V58.41H184.98V58.39Z" fill="#8B8F7F"/>
</svg>
