<svg preserveAspectRatio="none" width="100%" height="100%" overflow="visible" style="display: block;" viewBox="0 0 21.9547 24" fill="none" xmlns="http://www.w3.org/2000/svg">
<path id="linkedin icon" fill-rule="evenodd" clip-rule="evenodd" d="M0.434245 8.0782H4.79397V24H0.434245V8.0782ZM2.58576 0C3.3154 0.0322595 4.00259 0.352047 4.49715 0.889468C4.99171 1.42689 5.25341 2.13824 5.22506 2.86804C5.25315 3.59777 4.99136 4.30897 4.49686 4.84633C4.00235 5.38369 3.31531 5.70356 2.58576 5.73607C2.22762 5.7182 1.87653 5.62972 1.55269 5.47572C1.22886 5.32172 0.938643 5.10524 0.698739 4.83872C0.458834 4.5722 0.273968 4.2609 0.154764 3.9227C0.035561 3.5845 -0.0156286 3.22608 0.00413775 2.86804C-0.0156286 2.50999 0.035561 2.15157 0.154764 1.81337C0.273968 1.47517 0.458834 1.16387 0.698739 0.897347C0.938643 0.630827 1.22886 0.414347 1.55269 0.260349C1.87653 0.106352 2.22762 0.0178738 2.58576 0ZM7.37559 8.0782H11.6767V10.3021C12.1032 9.58026 12.7082 8.98031 13.4335 8.55986C14.1588 8.13942 14.9801 7.91262 15.8184 7.90127H17.0022C18.3696 7.9675 19.6559 8.56987 20.5822 9.57786C21.5086 10.5859 22.0005 11.9183 21.9514 13.2864V23.998H17.6503V22.5318V15.3939C17.5965 13.5787 16.4665 12.174 14.7998 12.174C13.9631 12.1994 13.1692 12.5499 12.5866 13.1511C12.0041 13.7523 11.6787 14.5568 11.6796 15.3939V23.9961H7.37853L7.37559 8.0782Z" fill="var(--fill-0, white)"/>
</svg>
