<svg preserveAspectRatio="none" width="100%" height="100%" overflow="visible" style="display: block;" viewBox="0 0 23.0549 23" fill="none" xmlns="http://www.w3.org/2000/svg">
<path id="insta icon" fill-rule="evenodd" clip-rule="evenodd" d="M6.21783 0H16.8371C18.4839 0.00735193 20.0611 0.664804 21.2256 1.82928C22.3901 2.99376 23.0475 4.57103 23.0549 6.21783V16.7822C23.0475 18.429 22.3901 20.0062 21.2256 21.1707C20.0611 22.3352 18.4839 22.9926 16.8371 23H6.21783C4.57103 22.9926 2.99376 22.3352 1.82928 21.1707C0.664804 20.0062 0.00735193 18.429 0 16.7822L0 6.21783C0.00735193 4.57103 0.664804 2.99376 1.82928 1.82928C2.99376 0.664804 4.57103 0.00735193 6.21783 0ZM17.7173 4.01714C18.0661 4.02179 18.3992 4.1624 18.6459 4.40902C18.8925 4.65565 19.0331 4.98881 19.0378 5.33756C19.0331 5.68631 18.8925 6.01946 18.6459 6.26609C18.3992 6.51271 18.0661 6.65332 17.7173 6.65797C17.5433 6.66025 17.3706 6.62766 17.2093 6.56211C17.0481 6.49656 16.9016 6.39938 16.7786 6.27631C16.6555 6.15324 16.5583 6.00677 16.4928 5.84554C16.4272 5.68431 16.3946 5.51159 16.3969 5.33756C16.3946 5.16353 16.4272 4.9908 16.4928 4.82957C16.5583 4.66834 16.6555 4.52187 16.7786 4.3988C16.9016 4.27573 17.0481 4.17856 17.2093 4.11301C17.3706 4.04746 17.5433 4.01486 17.7173 4.01714ZM11.4995 5.22777H11.5544C13.2125 5.24568 14.7976 5.91231 15.9701 7.08481C17.1426 8.25732 17.8092 9.84242 17.8271 11.5005C17.8185 13.1615 17.1548 14.7519 15.9803 15.9264C14.8058 17.1009 13.2154 17.7646 11.5544 17.7732H11.4995C9.84417 17.7627 8.26046 17.0967 7.0951 15.921C5.92974 14.7454 5.27767 13.1559 5.28167 11.5005C5.28705 9.848 5.94214 8.26392 7.1055 7.09029C8.26885 5.91667 9.84711 5.24768 11.4995 5.22777ZM11.4995 7.37457H11.5544C12.6462 7.38241 13.6911 7.81962 14.4632 8.59169C15.2353 9.36376 15.6725 10.4087 15.6803 11.5005C15.6841 12.6011 15.2523 13.6585 14.4794 14.4419C13.7064 15.2253 12.6549 15.6713 11.5544 15.6823H11.4995C10.399 15.6713 9.3475 15.2253 8.57452 14.4419C7.80155 13.6585 7.36983 12.6011 7.37357 11.5005C7.38141 10.4087 7.81862 9.36376 8.59069 8.59169C9.36276 7.81962 10.4077 7.38241 11.4995 7.37457ZM6.27273 1.98512H16.7822C17.9199 1.9867 19.0105 2.43936 19.815 3.24385C20.6195 4.04834 21.0722 5.139 21.0738 6.27672V16.7273C21.0722 17.865 20.6195 18.9557 19.815 19.7601C19.0105 20.5646 17.9199 21.0173 16.7822 21.0189H6.27273C5.13501 21.0173 4.04434 20.5646 3.23986 19.7601C2.43537 18.9557 1.98271 17.865 1.98112 16.7273V6.27273C1.98271 5.13501 2.43537 4.04434 3.23986 3.23986C4.04434 2.43537 5.13501 1.98271 6.27273 1.98112V1.98512Z" fill="var(--fill-0, white)"/>
</svg>
