<svg preserveAspectRatio="none" width="100%" height="100%" overflow="visible" style="display: block;" viewBox="0 0 44 48" fill="none" xmlns="http://www.w3.org/2000/svg">
<path id="mir i fokus icon" d="M22 47.998C19.284 47.998 16.718 46.956 14.776 45.0641L6.474 37.4284C2.288 33.2626 0 27.7608 0 21.9071C0 16.0533 2.288 10.5516 6.444 6.41373C10.6 2.2779 16.124 0 22 0C27.876 0 33.4 2.2779 37.554 6.41573C41.71 10.5536 44 16.0573 44 21.9091C44 27.7608 41.71 33.2646 37.554 37.4024L29.202 45.0861C27.282 46.958 24.716 48 21.998 48L22 47.998ZM22 1.99992C16.656 1.99992 11.634 4.07183 7.856 7.83367C4.078 11.5935 2 16.5913 2 21.9091C2 27.2269 4.08 32.2247 7.856 35.9845L16.15 43.6122C19.324 46.7041 24.696 46.6841 27.826 43.6322L36.17 35.9565C39.918 32.2247 41.998 27.2249 41.998 21.9091C41.998 16.5933 39.918 11.5935 36.14 7.83367C32.362 4.07183 27.34 1.99992 21.998 1.99992H22ZM30.708 24.393C31.098 24.003 31.098 23.369 30.708 22.979C30.318 22.5891 29.684 22.5891 29.294 22.979C27.346 24.927 24.756 25.9989 22.002 25.9989C19.248 25.9989 16.658 24.927 14.71 22.979C14.32 22.5891 13.686 22.5891 13.296 22.979C12.906 23.369 12.906 24.003 13.296 24.393C15.622 26.7189 18.714 27.9988 22.004 27.9988C25.294 27.9988 28.386 26.7169 30.712 24.393H30.708ZM16.002 13.9994C14.898 13.9994 14.002 14.8954 14.002 15.9993C14.002 17.1033 14.898 17.9993 16.002 17.9993C17.106 17.9993 18.002 17.1033 18.002 15.9993C18.002 14.8954 17.106 13.9994 16.002 13.9994ZM28.002 13.9994C26.898 13.9994 26.002 14.8954 26.002 15.9993C26.002 17.1033 26.898 17.9993 28.002 17.9993C29.106 17.9993 30.002 17.1033 30.002 15.9993C30.002 14.8954 29.106 13.9994 28.002 13.9994Z" fill="var(--fill-0, #1F1F1C)"/>
</svg>
