<svg preserveAspectRatio="none" width="100%" height="100%" overflow="visible" style="display: block;" viewBox="0 0 48 44" fill="none" xmlns="http://www.w3.org/2000/svg">
<path id="ugodan ambijent icon" d="M44 16.1V11C44 4.934 39.066 0 33 0H15C8.934 0 4 4.934 4 11V16.1C1.72 16.564 0 18.584 0 21V31C0 34.114 1.59 36.864 4 38.48V43C4 43.552 4.448 44 5 44C5.552 44 6 43.552 6 43V39.486C6.938 39.818 7.948 40 9 40H39C40.052 40 41.062 39.818 42 39.486V43C42 43.552 42.448 44 43 44C43.552 44 44 43.552 44 43V38.48C46.41 36.864 48 34.114 48 31V21C48 18.586 46.28 16.566 44 16.1ZM15 2H33C37.962 2 42 6.038 42 11V16.1C39.72 16.564 38 18.584 38 21V28H10V21C10 18.586 8.28 16.566 6 16.1V11C6 6.038 10.038 2 15 2ZM46 31C46 34.86 42.86 38 39 38H9C5.14 38 2 34.86 2 31V21C2 19.346 3.346 18 5 18C6.654 18 8 19.346 8 21V29C8 29.552 8.448 30 9 30H39C39.552 30 40 29.552 40 29V21C40 19.346 41.346 18 43 18C44.654 18 46 19.346 46 21V31Z" fill="var(--fill-0, #1F1F1C)"/>
</svg>
