<svg preserveAspectRatio="none" width="100%" height="100%" overflow="visible" style="display: block;" viewBox="0 0 48 48" fill="none" xmlns="http://www.w3.org/2000/svg">
<path id="zajednica ljudi icon" d="M43 18C45.756 18 48 15.756 48 13C48 10.244 45.756 8 43 8C40.244 8 38 10.244 38 13C38 15.756 40.244 18 43 18ZM43 10C44.654 10 46 11.346 46 13C46 14.654 44.654 16 43 16C41.346 16 40 14.654 40 13C40 11.346 41.346 10 43 10ZM43 20C40.244 20 38 22.244 38 25V36H36C33.794 36 32 37.794 32 40V47C32 47.552 32.448 48 33 48C33.552 48 34 47.552 34 47V40C34 38.896 34.898 38 36 38H43C45.756 38 48 35.758 48 33V25C48 22.244 45.756 20 43 20ZM46 33C46 34.654 44.654 36 43 36H40V25C40 23.346 41.346 22 43 22C44.654 22 46 23.346 46 25V33ZM48 43C48 43.552 47.552 44 47 44H41C40.448 44 40 44.45 40 45V47C40 47.552 39.552 48 39 48C38.448 48 38 47.552 38 47V45C38 43.346 39.346 42 41 42H47C47.552 42 48 42.448 48 43ZM5 18C7.756 18 10 15.756 10 13C10 10.244 7.756 8 5 8C2.244 8 0 10.244 0 13C0 15.756 2.244 18 5 18ZM5 10C6.654 10 8 11.346 8 13C8 14.654 6.654 16 5 16C3.346 16 2 14.654 2 13C2 11.346 3.346 10 5 10ZM12 36H10V25C10 22.244 7.756 20 5 20C2.244 20 0 22.244 0 25V33C0 35.758 2.244 38 5 38H12C13.102 38 14 38.896 14 40V47C14 47.552 14.448 48 15 48C15.552 48 16 47.552 16 47V40C16 37.794 14.206 36 12 36ZM5 36C3.346 36 2 34.654 2 33V25C2 23.346 3.346 22 5 22C6.654 22 8 23.346 8 25V36H5ZM10 45V47C10 47.552 9.552 48 9 48C8.448 48 8 47.552 8 47V45C8 44.45 7.552 44 7 44H1C0.448 44 0 43.552 0 43C0 42.448 0.448 42 1 42H7C8.654 42 10 43.346 10 45ZM14 27C14 26.448 14.448 26 15 26H33C33.552 26 34 26.448 34 27C34 27.552 33.552 28 33 28H15C14.448 28 14 27.552 14 27ZM16 21V20C16 15.588 19.588 12 24 12C28.412 12 32 15.588 32 20V21C32 21.552 31.552 22 31 22C30.448 22 30 21.552 30 21V20C30 16.692 27.308 14 24 14C20.692 14 18 16.692 18 20V21C18 21.552 17.552 22 17 22C16.448 22 16 21.552 16 21ZM24 10C26.756 10 29 7.756 29 5C29 2.244 26.756 0 24 0C21.244 0 19 2.244 19 5C19 7.756 21.244 10 24 10ZM24 2C25.654 2 27 3.346 27 5C27 6.654 25.654 8 24 8C22.346 8 21 6.654 21 5C21 3.346 22.346 2 24 2Z" fill="var(--fill-0, #1F1F1C)"/>
</svg>
